<?xml version="1.0" encoding="UTF-8"?>
<svg version="1.1" viewBox="0 0 2048 1381" width="1280" height="1280" xmlns="http://www.w3.org/2000/svg">
<path transform="translate(0)" d="m0 0h2048v1381h-2048z" fill="#161513"/>
<path transform="translate(990,888)" d="m0 0h101l-6 11-13 18-12 15-13 17-12 14-9 11-11 13-9 11-11 13-10 12-9 11-18 20-12 13-14 15-56 56-8 7-8 8-8 7-14 13-22 18-13 11-13 10-16 12-13 10-16 11-27 18-20 13-22 13-24 13-28 14-32 13-33 11-32 8-26 5-27 3-12 1h-33l-36-3-28-4-24-5-29-8-25-9-23-10-22-12-20-12-18-13-11-9-14-13-9-11-10-13-9-17-6-18-2-9v-33l4-17 6-15 8-15 10-13 3-4h2l2-4 7-8 11-10 11-9 12-9 21-14 26-15 17-9 31-14 28-11 28-10 30-10 37-11 64-16 43-9 43-8 37-6 41-6 57-7 55-6 68-6 85-5h24l2-2z" fill="#1A1817"/>
<path transform="translate(1557,184)" d="m0 0h11l9 5 2 3-1 8-15 29-10 19-13 28-13 29-17 37-30 65-26 56-15 33-16 34-14 30-13 28-54 117-16 34-17 37-9 20-16 36-8 19-2 8h65l3-3 17-35 26-53 22-45 4-6 2-2h24l1 1-1 7-10 25-12 27-18 41-15 33-4 8v2l16 1 83 1 5-5 15-32 11-25 8-16 16-36 8-16 4-6 5-4 8-2 11 1 3 2v7l-8 24-19 46-15 33-11 24-3 6h15l8 1 47 1h12l10 2 103 1 49 1 39 2 49 4 16 3 2 4-1 6-5 5-3 2-18-1-22-2-3-1-120-3 3 3v7l-7 17-8 12-6 7-5 3-7 1h-8l-6-2-1-5 11-24 7-12 6-7-15-2-40-1-5-1-54-1h-51l-2 1-11 23-14 27-8 16-4 9 8-3 21-14 13-8 12-4 12-2 14 3 6 4 5 6 4 13v15l-6 31-2 9v10h9l16-6 29-15 8-11 10-16 4-5 10-6 7 1 6 4 3 3-1 7-8 19-8 16-5 12-5 15v5l9-2 30-12 19-10 12-9 16-13 13-9 4 1 1 1v8l-1 4 29-11 32-14 33-13 30-13 28-11 17-6 11-2h19l15 3 13 5 13 7 11 9 9 10 9 16 6 18 2 9v19l-4 17-7 16-8 12-9 10-12 9-15 8-16 5-3 1h-19l-93-11-54-6-73-9-56-7-43-4-9-2-2-1v-2l10-6v-13l1-11 1-4-21 8-27 9-4 1h-12l-8-3-7-8-3-12 1-15 3-12 6-33v-7l-6 1-14 9-10 9-11 9-12 11-22 22-10 13-20 28-5 6-7 4h-14l-6-3-1-1v-10l9-21 38-80 12-25 8-16 14-30-95-1-9 1-11 23-10 19-4 7-1 1h2v-2l16-8 16-4h9l11 4 8 6 4 5 3 12 2 14-1 12-3 17-6 16-10 19-9 12-8 10-13 12-10 6-11 4-4 1-18 1-13-2-9-4-9-7-3-2-6 1-5 6-7 1-7-2-4-5 1-9 13-34 9-21 12-27 19-41 17-34 4-9-11 1-55 1-8 12-13 30-17 38-25 60-17 44-12 35-8 28-7 30-5 24-1 14 2 11 7 14 6 7 1 6-8 4-3 1h-12l-9-3-10-9-5-10-2-11v-22l3-27 8-33 12-39 15-42 8-20 13-33 19-45 16-35 7-19v-9l-29-1-11 1-2 2-13-1-19 1-10 4-11 12-12 16-22 28-11 13-8 11-11 13-9 11-14 17-22 26-9 10-13 15-16 17-11 12-8 8-1 2h-2v2h-2l-2 4-32 32-8 7-13 13-8 7-12 11-11 9-14 12-11 9-12 10-30 23-28 20-13 9-17 11-16 10-28 17-24 13-27 13-27 11-36 12-25 7-23 5-32 5-29 3-26 2h-24l-56-5-30-5-26-6-29-9-21-8-25-11-24-12-20-12-17-12-11-9-10-9-15-15-10-13-9-15-8-17-6-20-2-13v-17l3-21 8-24 11-21 10-14 12-13 5-6 8-7 13-12 18-13 10-7 18-11 18-10 27-14 29-13 36-14 47-16 48-14 34-9 53-12 40-8 46-8 39-6 44-6 64-7 78-7 93-6 37-2 32-1 100-1 16-3 10-4 7-7 13-18 13-19 9-12 16-23 11-15 10-14 15-22 12-17 50-75 12-19 6-9 19-29 15-23 9-14 14-22 10-16 9-14 12-19 10-16 11-17 11-18 13-21 11-18 16-26 6-10 17-28 9-15 14-23 10-17 12-20 15-28 9-16 7-9 5-4zm-567 704-34 1-3 2h-23l-85 5-77 7-71 8-47 6-52 8-49 9-34 7-47 11-34 9-43 13-36 12-36 14-30 13-19 10-22 12-19 12-10 7-12 9-15 13-10 9-6 7v2h-2l-13 17-10 19-6 18-2 10v33l5 19 7 16 8 13 11 14 13 14 8 7 17 13 15 10 24 14 15 8 26 11 30 10 32 8 31 5 29 3 15 1h33l31-3 24-4 27-6 28-8 28-10 28-12 34-17 23-13 21-13 39-26 17-12 16-12 13-10 9-7 11-9 13-11 11-9 14-12 9-9 8-7 8-8 8-7 59-59 7-8 16-17 9-10 11-13 7-9 13-15 9-11 14-17 11-13 9-11 22-28 14-19 8-13v-1z" fill="#FBF7FA"/>
<path transform="translate(1913,930)" d="m0 0h19l15 3 13 5 13 7 11 9 9 10 9 16 6 18 2 9v19l-4 17-7 16-8 12-9 10-12 9-15 8-16 5-3 1h-19l-93-11-54-6-73-9-56-7-43-4-9-2-2-1v-2l10-6 9-3 27-10 13-5 3-3 22-9 17-9 12-9 16-13 13-9 4 1 1 1v8l-1 4 29-11 32-14 33-13 30-13 28-11 17-6z" fill="#BD43A6"/>
<path transform="translate(1729,986)" d="m0 0 4 1 1 1v8l-3 5-2 2 2 1 3 10-1 4 3 1 4 1v2l4 1 5 2h2v2l4 2v2h2v3l4 1 3 5 2 1v2h9l5 6 8 4 11 4h5l6 3 15 3 13 4 17 4 35 6 23 3 15 2 18-2 22-7h15l4-1-2 4-9 10-13 8-11 5-16 5h-19l-93-11-54-6-73-9-56-7-43-4-9-2-2-1v-2l10-6 9-3 27-10 13-5 3-3 22-9 17-9 12-9 16-13z" fill="#BC33BC"/>
<path transform="translate(1393,505)" d="m0 0 1 3-13 31-17 38-16 36-15 33-18 39-9 20-10 22-7 15-11 24-15 33-16 36-8 16-6 7-10 3-39 1h-22l-5-2 5-9 14-20 13-18 12-17 10-14 14-20 12-17 10-15 7-10 40-60 10-16 13-20 15-23 12-19 10-15 12-19 13-20 12-20z" fill="#1A1817"/>
<path transform="translate(1370,942)" d="m0 0 6 2 2 2-1 15-4 17-8 19-9 15-7 10-9 11-7 7-9 6h-7l-7-6-5-12-1-5v-11l3-11 8-16 9-11 18-18 10-7 12-6z" fill="#1A1817"/>
<path transform="translate(1479,1054)" d="m0 0h10l19 3 40 2 23 3 3 1v3l-11 5-19 8-36 16-18 7-10 2-8-4-8-8-5-9v-8l5-10 8-9z" fill="#BC33BB"/>
<path transform="translate(1667,885)" d="m0 0h24l5 5v7l-7 17-8 12-6 7-5 3-7 1h-8l-6-2-1-5 11-24 7-12 6-7-5-1z" fill="#F9F0F7"/>
<path transform="translate(1729,986)" d="m0 0 4 1 1 1v8l-3 5-9 5-14 6-16 6-12 6-1-2 10-6 11-8 16-13z" fill="#FAF3F8"/>
<path transform="translate(1496,1056)" d="m0 0h7l5 1 40 2 23 3v1h-21l-11-2-32-2-11-2z" fill="#BE44A6"/>
<path transform="translate(1690,1015)" d="m0 0 2 1-4 4-9 4v-2l10-6z" fill="#ECCBE6"/>
</svg>
